<svg xmlns="http://www.w3.org/2000/svg" width="400" height="391" viewBox="0 0 400 391" fill="none">
<rect x="53" y="213" width="40" height="40" rx="6" fill="#A9AF92" fill-opacity="0.6"/>
<rect x="95" y="213" width="40" height="40" rx="6" fill="#A9AF92" fill-opacity="0.6"/>
<rect x="137" y="213" width="40" height="40" rx="6" fill="#A9AF92" fill-opacity="0.5"/>
<rect x="221" y="3" width="40" height="40" rx="6" fill="#A9AF92" fill-opacity="0.7"/>
<rect x="179" y="213" width="40" height="40" rx="6" fill="#A9AF92" fill-opacity="0.4"/>
<rect x="263" y="3" width="40" height="40" rx="6" fill="#A9AF92" fill-opacity="0.8"/>
<rect x="221" y="213" width="40" height="40" rx="6" fill="#A9AF92" fill-opacity="0.2"/>
<rect x="305" y="3" width="40" height="40" rx="6" fill="#A9AF92"/>
<rect x="347" y="3" width="40" height="40" rx="6" fill="#A9AF92"/>
<rect x="11" y="255" width="40" height="40" rx="6" fill="#A9AF92" fill-opacity="0.2"/>
<rect x="53" y="255" width="40" height="40" rx="6" fill="#A9AF92" fill-opacity="0.4"/>
<rect x="95" y="255" width="40" height="40" rx="6" fill="#A9AF92" fill-opacity="0.2"/>
<rect x="179" y="45" width="40" height="40" rx="6" fill="#A9AF92" fill-opacity="0.6"/>
<rect x="137" y="255" width="40" height="40" rx="6" fill="#A9AF92" fill-opacity="0.4"/>
<rect x="221" y="45" width="40" height="40" rx="6" fill="#A9AF92" fill-opacity="0.65"/>
<rect x="263" y="45" width="40" height="40" rx="6" fill="#A9AF92" fill-opacity="0.7"/>
<rect x="305" y="45" width="40" height="40" rx="6" fill="#A9AF92" fill-opacity="0.8"/>
<rect x="347" y="45" width="40" height="40" rx="6" fill="#A9AF92"/>
<rect x="11" y="297" width="40" height="40" rx="6" fill="#A9AF92" fill-opacity="0.3"/>
<rect x="95" y="87" width="40" height="40" rx="6" fill="#A9AF92" fill-opacity="0.5"/>
<rect x="53" y="297" width="40" height="40" rx="6" fill="#A9AF92" fill-opacity="0.3"/>
<rect x="137" y="87" width="40" height="40" rx="6" fill="#A9AF92" fill-opacity="0.6"/>
<rect x="95" y="297" width="40" height="40" rx="6" fill="#A9AF92" fill-opacity="0.4"/>
<rect x="179" y="87" width="40" height="40" rx="6" fill="#A9AF92" fill-opacity="0.6"/>
<rect x="221" y="87" width="40" height="40" rx="6" fill="#A9AF92" fill-opacity="0.6"/>
<rect x="263" y="87" width="40" height="40" rx="6" fill="#A9AF92" fill-opacity="0.65"/>
<rect x="305" y="87" width="40" height="40" rx="6" fill="#A9AF92" fill-opacity="0.7"/>
<rect x="347" y="87" width="40" height="40" rx="6" fill="#A9AF92" fill-opacity="0.8"/>
<rect x="11" y="339" width="40" height="40" rx="6" fill="#A9AF92" fill-opacity="0.4"/>
<rect x="95" y="129" width="40" height="40" rx="6" fill="#A9AF92" fill-opacity="0.6"/>
<rect x="137" y="129" width="40" height="40" rx="6" fill="#A9AF92" fill-opacity="0.5"/>
<rect x="179" y="129" width="40" height="40" rx="6" fill="#A9AF92" fill-opacity="0.6"/>
<rect x="221" y="129" width="40" height="40" rx="6" fill="#A9AF92" fill-opacity="0.7"/>
<rect x="263" y="129" width="40" height="40" rx="6" fill="#A9AF92" fill-opacity="0.6"/>
<rect x="305" y="129" width="40" height="40" rx="6" fill="#A9AF92" fill-opacity="0.65"/>
<rect x="347" y="129" width="40" height="40" rx="6" fill="#A9AF92" fill-opacity="0.7"/>
<rect x="53" y="171" width="40" height="40" rx="6" fill="#A9AF92" fill-opacity="0.4"/>
<rect x="95" y="171" width="40" height="40" rx="6" fill="#A9AF92" fill-opacity="0.5"/>
<rect x="137" y="171" width="40" height="40" rx="6" fill="#A9AF92" fill-opacity="0.6"/>
<rect x="179" y="171" width="40" height="40" rx="6" fill="#A9AF92" fill-opacity="0.6"/>
<rect x="221" y="171" width="40" height="40" rx="6" fill="#A9AF92" fill-opacity="0.6"/>
<rect x="263" y="171" width="40" height="40" rx="6" fill="#A9AF92" fill-opacity="0.5"/>
<rect width="400" height="391" fill="url(#paint0_linear_262_1220)"/>
<rect width="400" height="391" fill="url(#paint1_linear_262_1220)"/>
<defs>
<linearGradient id="paint0_linear_262_1220" x1="400" y1="0" x2="326.5" y2="297.5" gradientUnits="userSpaceOnUse">
<stop stop-color="#F1EFEA"/>
<stop stop-color="#F1EFEA"/>
<stop offset="0.34" stop-color="#F1EFEA" stop-opacity="0.2"/>
<stop offset="1" stop-color="#F1EFEA"/>
</linearGradient>
<linearGradient id="paint1_linear_262_1220" x1="366.5" y1="2.24858e-06" x2="321" y2="213" gradientUnits="userSpaceOnUse">
<stop stop-color="#F1EFEA"/>
<stop stop-color="#F1EFEA"/>
<stop offset="0.169299" stop-color="#F1EFEA"/>
<stop offset="1" stop-color="#F1EFEA" stop-opacity="0.2"/>
</linearGradient>
</defs>
</svg>