<svg width="121" height="52" viewBox="0 0 121 52" fill="none" xmlns="http://www.w3.org/2000/svg">
<path d="M62.2853 45.28C60.9786 45.28 59.712 45.0267 58.4853 44.52C57.2586 44.0133 56.1653 43.3067 55.2053 42.4C54.2453 41.4933 53.472 40.4533 52.8853 39.28C50.3253 39.2 48.072 38.5467 46.1253 37.32C44.2053 36.0933 42.6986 34.48 41.6053 32.48C40.5386 30.4533 40.0053 28.2133 40.0053 25.76C40.0053 23.8667 40.3253 22.1067 40.9653 20.48C41.6053 18.8533 42.512 17.4133 43.6853 16.16C44.8853 14.9067 46.312 13.9333 47.9653 13.24C49.6186 12.5467 51.4453 12.2 53.4453 12.2C55.4453 12.2 57.272 12.5467 58.9253 13.24C60.5786 13.9333 61.992 14.9067 63.1653 16.16C64.3653 17.4133 65.2853 18.8533 65.9253 20.48C66.5653 22.1067 66.8853 23.8667 66.8853 25.76C66.8853 28 66.4186 30.0667 65.4853 31.96C64.5786 33.8267 63.2986 35.3867 61.6453 36.64C60.0186 37.8933 58.112 38.7067 55.9253 39.08C56.192 39.56 56.592 40.08 57.1253 40.64C57.6586 41.2267 58.352 41.72 59.2053 42.12C60.0586 42.52 61.0986 42.72 62.3253 42.72C63.2853 42.72 64.152 42.56 64.9253 42.24C65.7253 41.92 66.472 41.48 67.1653 40.92L68.7653 43.08C67.832 43.8267 66.832 44.3733 65.7653 44.72C64.7253 45.0933 63.5653 45.28 62.2853 45.28ZM53.4453 36.4C55.6053 36.4 57.4586 35.9333 59.0053 35C60.5786 34.04 61.7786 32.76 62.6053 31.16C63.4586 29.5333 63.8853 27.7333 63.8853 25.76C63.8853 23.76 63.4586 21.96 62.6053 20.36C61.7786 18.76 60.5786 17.4933 59.0053 16.56C57.4586 15.6 55.6053 15.12 53.4453 15.12C51.312 15.12 49.4586 15.6 47.8853 16.56C46.312 17.4933 45.0986 18.76 44.2453 20.36C43.4186 21.96 43.0053 23.76 43.0053 25.76C43.0053 27.7333 43.4186 29.5333 44.2453 31.16C45.0986 32.76 46.312 34.04 47.8853 35C49.4586 35.9333 51.312 36.4 53.4453 36.4Z" fill="#8A9469"/>
<path d="M78.8453 39.32C77.4853 39.32 76.192 39 74.9653 38.36C73.7386 37.6933 72.7386 36.72 71.9653 35.44C71.2186 34.1333 70.8453 32.5333 70.8453 30.64V19H73.8453V30.56C73.8453 32.3733 74.3653 33.84 75.4053 34.96C76.472 36.0533 77.8186 36.6 79.4453 36.6C80.5653 36.6 81.5786 36.3467 82.4853 35.84C83.392 35.3067 84.112 34.5867 84.6453 33.68C85.2053 32.7733 85.4853 31.72 85.4853 30.52V19H88.4853V39H85.4853V35.88C84.7653 36.84 83.8853 37.6533 82.8453 38.32C81.8053 38.9867 80.472 39.32 78.8453 39.32ZM93.5816 15.64V11.72H96.8216V15.64H93.5816ZM93.7016 39V19H96.7016V39H93.7016ZM101.905 39V11H104.905V39H101.905ZM112.268 39V21.64H108.188V19H112.268V11.84H115.268V19H119.868V21.64H115.268V39H112.268Z" fill="#002C25"/>
<rect width="11.419" height="11.419" rx="2" transform="matrix(-0.715924 0.698178 0.698178 0.715924 8.17529 18.3594)" fill="#22332B"/>
<rect width="11.419" height="11.419" rx="2" transform="matrix(-0.715924 0.698178 0.698178 0.715924 16.7476 10)" fill="#445245"/>
<rect width="11.419" height="11.3082" rx="2" transform="matrix(-0.715924 0.698178 0.698178 0.715924 16.5352 26.9316)" fill="#A2A98D"/>
<rect width="11.419" height="11.3082" rx="2" transform="matrix(-0.715924 0.698178 0.698178 0.715924 25.1069 18.5723)" fill="#76806B"/>
</svg>
