<svg width="200" height="86" viewBox="0 0 200 86" fill="none" xmlns="http://www.w3.org/2000/svg">
<path d="M55.9633 85.7C52.6966 85.7 49.53 85.0667 46.4633 83.8C43.3966 82.5333 40.6633 80.7667 38.2633 78.5C35.8633 76.2333 33.93 73.6333 32.4633 70.7C26.0633 70.5 20.4299 68.8667 15.5633 65.8C10.7633 62.7333 6.99662 58.7 4.26328 53.7C1.59661 48.6333 0.263281 43.0333 0.263281 36.9C0.263281 32.1667 1.06328 27.7667 2.66328 23.7C4.26328 19.6333 6.52995 16.0333 9.46328 12.9C12.4633 9.76666 16.0299 7.33333 20.1633 5.59999C24.2966 3.86666 28.8633 3 33.8633 3C38.8633 3 43.4299 3.86666 47.5633 5.59999C51.6966 7.33333 55.2299 9.76666 58.1633 12.9C61.1633 16.0333 63.4633 19.6333 65.0633 23.7C66.6633 27.7667 67.4633 32.1667 67.4633 36.9C67.4633 42.5 66.2966 47.6667 63.9633 52.4C61.6966 57.0667 58.4966 60.9667 54.3633 64.1C50.2966 67.2333 45.53 69.2667 40.0633 70.2C40.7299 71.4 41.7299 72.7 43.0633 74.1C44.3966 75.5667 46.13 76.8 48.2633 77.8C50.3966 78.8 52.9966 79.3 56.0633 79.3C58.4633 79.3 60.63 78.9 62.5633 78.1C64.5633 77.3 66.43 76.2 68.1633 74.8L72.1633 80.2C69.83 82.0667 67.33 83.4333 64.6633 84.3C62.0633 85.2333 59.1633 85.7 55.9633 85.7ZM33.8633 63.5C39.2633 63.5 43.8966 62.3333 47.7633 60C51.6966 57.6 54.6966 54.4 56.7633 50.4C58.8966 46.3333 59.9633 41.8333 59.9633 36.9C59.9633 31.9 58.8966 27.4 56.7633 23.4C54.6966 19.4 51.6966 16.2333 47.7633 13.9C43.8966 11.5 39.2633 10.3 33.8633 10.3C28.53 10.3 23.8966 11.5 19.9633 13.9C16.0299 16.2333 12.9966 19.4 10.8633 23.4C8.79662 27.4 7.76328 31.9 7.76328 36.9C7.76328 41.8333 8.79662 46.3333 10.8633 50.4C12.9966 54.4 16.0299 57.6 19.9633 60C23.8966 62.3333 28.53 63.5 33.8633 63.5Z" fill="#8A9469"/>
<path d="M97.3633 70.8C93.9633 70.8 90.7299 70 87.6633 68.4C84.5966 66.7333 82.0966 64.3 80.1633 61.1C78.2966 57.8333 77.3633 53.8333 77.3633 49.1V20H84.8633V48.9C84.8633 53.4333 86.1633 57.1 88.7633 59.9C91.4299 62.6333 94.7966 64 98.8633 64C101.663 64 104.197 63.3667 106.463 62.1C108.73 60.7667 110.53 58.9667 111.863 56.7C113.263 54.4333 113.963 51.8 113.963 48.8V20H121.463V70H113.963V62.2C112.163 64.6 109.963 66.6333 107.363 68.3C104.763 69.9667 101.43 70.8 97.3633 70.8ZM134.204 11.6V1.8H142.304V11.6H134.204ZM134.504 70V20H142.004V70H134.504ZM155.012 70V-4.76837e-06H162.512V70H155.012ZM180.92 70V26.6H170.72V20H180.92V2.1H188.42V20H199.92V26.6H188.42V70H180.92Z" fill="#002C25"/>
</svg>
